<svg width="24" height="24" viewBox="0 0 24 24" fill="none" xmlns="http://www.w3.org/2000/svg">
<path fill-rule="evenodd" clip-rule="evenodd" d="M6.04668 9.75861C5.42323 9.41993 5 8.75939 5 8C5 7.5496 5.14888 7.13398 5.40011 6.79966C5.76501 6.31407 6.34583 6 7 6C8.01491 6 8.00901 6.75596 8.00136 7.73552V7.7356C8.00069 7.82211 8 7.91037 8 8C8 8.08963 8.00069 8.17789 8.00136 8.2644V8.26448C8.00901 9.24404 8.01491 10 7 10C6.68622 10 6.38933 9.92774 6.12504 9.79896C6.09859 9.78607 6.07246 9.77262 6.04668 9.75861ZM3.00049 7.93684C2.72398 11.5953 4.98227 15.1346 7.82339 17.3669C10.0171 19.0906 12.8807 20.28 15.666 20.0157C15.776 20.0257 15.8874 20.0312 15.9999 20.0322C18.2089 20.05 20.0142 18.2737 20.0321 16.0647C20.05 13.8556 18.2656 13.0503 16.0565 13.0324C13.8475 13.0145 12.0503 13.7908 12.0324 15.9999C12.0312 16.1445 12.0377 16.2873 12.0515 16.428C11.2464 16.087 10.4428 15.6098 9.67688 15.008C8.57045 14.1386 7.6587 13.0975 7.01726 12C9.21326 11.9907 10 10.2034 10 8C10 5.79086 9.20914 4 7 4C4.81195 4 3.03423 5.75683 3.00049 7.93684ZM17.9586 16.5718C17.946 16.5678 17.9333 16.5639 17.9205 16.5601C17.6783 17.3921 16.9101 18 16 18C15.4556 18 14.9619 17.7825 14.6013 17.4296C14.2455 17.0652 14.0279 16.5656 14.0323 16.0161C14.0405 15.0012 14.7964 15.0132 15.7759 15.0288C15.8624 15.0302 15.9507 15.0316 16.0404 15.0323C16.1299 15.033 16.2182 15.0331 16.3046 15.0331H16.3048C17.2844 15.0334 18.0404 15.0336 18.0322 16.0485C18.0307 16.2298 18.0052 16.4052 17.9586 16.5718Z" fill="#333333"/>
</svg>
